<svg width="47" height="32" viewBox="0 0 47 32" fill="none" xmlns="http://www.w3.org/2000/svg">
<path d="M46 20C46 20 37.8182 31 23.5 31C9.18181 31 0.999997 20 0.999997 20C0.999997 20 9.18182 9 23.5 9C37.8182 9 46 20 46 20Z" stroke="#181818" stroke-width="1.5" stroke-linecap="round" stroke-linejoin="round"/>
<path d="M24 14C20.6863 14 18 16.6863 18 20C18 23.3137 20.6863 26 24 26C27.3137 26 30 23.3137 30 20C30 16.6863 27.3137 14 24 14Z" stroke="#181818" stroke-width="1.5" stroke-linecap="round" stroke-linejoin="round"/>
<line x1="41.4" y1="14.55" x2="44.4" y2="10.55" stroke="#181818" stroke-width="1.5"/>
<line x1="4.46967" y1="15.5303" x2="1.46967" y2="12.5303" stroke="#181818" stroke-width="1.5"/>
<line x1="36.3292" y1="11.6646" x2="39.3292" y2="5.66459" stroke="#181818" stroke-width="1.5"/>
<line x1="9.32918" y1="12.3354" x2="6.32918" y2="6.33541" stroke="#181818" stroke-width="1.5"/>
<line x1="23.25" y1="9" x2="23.25" y2="-6.55671e-08" stroke="#181818" stroke-width="1.5"/>
<line x1="30.2575" y1="9.89393" x2="31.2575" y2="2.89393" stroke="#181818" stroke-width="1.5"/>
<line x1="16.2575" y1="10.1061" x2="15.2575" y2="3.10607" stroke="#181818" stroke-width="1.5"/>
</svg>
