<svg width="13" height="14" viewBox="0 0 13 14" fill="none" xmlns="http://www.w3.org/2000/svg">
<path d="M2.6865 7.0146C2.67451 7.0097 2.6625 7.00483 2.65047 7C2.6625 6.99517 2.67451 6.9903 2.6865 6.9854C3.54052 6.63661 4.31638 6.12098 4.96868 5.46868C5.62098 4.81638 6.13661 4.04052 6.4854 3.1865C6.4903 3.17451 6.49517 3.1625 6.5 3.15047C6.50483 3.1625 6.5097 3.17451 6.5146 3.1865C6.86339 4.04052 7.37902 4.81638 8.03132 5.46868C8.68362 6.12098 9.45948 6.63661 10.3135 6.9854C10.3255 6.9903 10.3375 6.99517 10.3495 7C10.3375 7.00483 10.3255 7.0097 10.3135 7.0146C9.45948 7.36339 8.68362 7.87902 8.03132 8.53132C7.37902 9.18362 6.86339 9.95948 6.5146 10.8135C6.5097 10.8255 6.50483 10.8375 6.5 10.8495C6.49517 10.8375 6.4903 10.8255 6.4854 10.8135C6.13661 9.95948 5.62098 9.18362 4.96868 8.53132C4.31638 7.87902 3.54052 7.36339 2.6865 7.0146Z" stroke="#DFF314"/>
</svg>
