<svg width="80" height="80" viewBox="0 0 80 80" fill="none" xmlns="http://www.w3.org/2000/svg">
<path d="M79.9481 40.0037H80V39.937H79.9333C74.6851 39.9526 69.4853 38.9327 64.6321 36.9356C59.7789 34.9385 55.3676 32.0036 51.651 28.2991C47.9344 24.5945 44.9856 20.1932 42.9736 15.3472C40.9616 10.5013 39.9259 5.30607 39.9259 0.0592551C39.9191 0.0400853 39.9191 0.0191698 39.9259 0H39.8592C39.8632 0.0195497 39.8632 0.0397054 39.8592 0.0592551C39.8729 5.2962 38.8536 10.4844 36.8598 15.3272C34.8659 20.17 31.9366 24.5723 28.2393 28.2823C24.5421 31.9922 20.1495 34.9371 15.3128 36.9483C10.4762 38.9596 5.29028 39.9979 0.0518656 40.0037C0.0454394 40.0048 0.0388542 40.0044 0.0325738 40.0027C0.0262934 40.001 0.0204744 39.9979 0.015526 39.9936C0.0105776 39.9894 0.0066203 39.9841 0.00393846 39.9782C0.00125662 39.9722 -8.69087e-05 39.9658 4.35709e-06 39.9593V40.0037H0.0518656C5.29868 39.9998 10.4948 41.0302 15.3428 43.0359C20.1909 45.0417 24.5958 47.9834 28.3055 51.6927C32.0153 55.4021 34.957 59.8063 36.9624 64.6535C38.9677 69.5006 39.9975 74.6954 39.9926 79.9408L39.9407 80H39.9926C39.9888 79.9804 39.9888 79.9603 39.9926 79.9408C39.9926 74.6955 41.0261 69.5016 43.0342 64.6558C45.0422 59.8099 47.9854 55.407 51.6958 51.6984C55.4061 47.9898 59.8108 45.0482 64.6584 43.0416C69.506 41.035 74.7014 40.0027 79.9481 40.0037Z" fill="#DFF314"/>
</svg>
