<svg width="28" height="28" viewBox="0 0 28 28" fill="none" xmlns="http://www.w3.org/2000/svg">
<path d="M14.3691 22.3424C14.2338 22.669 14.1104 22.9999 13.9992 23.3344C13.8882 22.9998 13.765 22.6687 13.6299 22.342C12.8903 20.5544 11.8054 18.9301 10.4372 17.5621C9.06912 16.1941 7.44463 15.1092 5.65671 14.3695C5.3263 14.2328 4.99149 14.1084 4.653 13.9964C4.98838 13.8846 5.32009 13.7606 5.64747 13.6244C7.43131 12.8826 9.05139 11.7965 10.415 10.4282C11.7786 9.05989 12.859 7.43621 13.5944 5.65006C13.7315 5.31713 13.8561 4.97977 13.9681 4.63869C14.0819 4.9829 14.2086 5.32329 14.3481 5.65913C15.0901 7.44636 16.1777 9.06961 17.5484 10.4359C18.9191 11.8021 20.546 12.8845 22.3358 13.621C22.6706 13.7588 23.0099 13.884 23.3529 13.9964C23.0125 14.1089 22.6758 14.2341 22.3436 14.3716C20.5559 15.1116 18.9316 16.1963 17.5633 17.564C16.195 18.9316 15.1096 20.5553 14.3691 22.3424Z" stroke="#DFF314" stroke-width="1.5"/>
</svg>
